<svg width="28" height="28" viewBox="0 0 28 28" fill="none" xmlns="http://www.w3.org/2000/svg">
<g clip-path="url(#clip0_136_430)">
<g clip-path="url(#clip1_136_430)">
<g clip-path="url(#clip2_136_430)">
<path d="M6.00966 22.5746H25.0824C25.1408 22.5746 25.1974 22.5663 25.2517 22.5533C25.2561 22.5533 25.2597 22.554 25.264 22.554C25.6712 22.554 26.0019 22.2236 26.0019 21.8162V0.960087C26.002 0.552753 25.6712 0.222168 25.264 0.222168H25.0839H7.18984H6.0107C4.04657 0.222168 2.44894 1.82017 2.44894 3.78375C2.44894 3.81008 2.45412 3.83507 2.45668 3.86049C2.45412 5.67435 2.43162 22.3414 2.45412 24.5325C2.45272 24.5754 2.44747 24.6172 2.44747 24.6605C2.44747 26.5486 3.92587 28.0943 5.78545 28.2111C5.82276 28.2168 5.85933 28.2222 5.89804 28.2222H25.2639C25.6711 28.2222 26.0019 27.8918 26.0019 27.4843V24.7067C26.0019 24.2995 25.671 23.9688 25.2639 23.9688C24.8569 23.9688 24.526 24.2995 24.526 24.7067V26.7465H6.00966C4.88831 26.7465 3.97293 25.8561 3.92794 24.7459C3.92904 24.7261 3.93264 24.7074 3.93227 24.6872C3.93154 24.6548 3.93044 24.6044 3.92971 24.5373C3.99421 23.4447 4.90111 22.5746 6.00966 22.5746ZM6.51282 3.78375C6.51282 3.37641 6.84341 3.04583 7.25074 3.04583C7.65808 3.04583 7.98866 3.37641 7.98866 3.78375V18.7729C7.98866 19.18 7.65808 19.5108 7.25074 19.5108C6.84341 19.5108 6.51282 19.1799 6.51282 18.7729V3.78375Z" fill="#FB39AD"/>
</g>
</g>
</g>
<defs>
<clipPath id="clip0_136_430">
<rect width="28" height="28" fill="white" transform="translate(0.222229 0.222168)"/>
</clipPath>
<clipPath id="clip1_136_430">
<rect width="28" height="28" fill="white" transform="translate(0.222656 0.222168)"/>
</clipPath>
<clipPath id="clip2_136_430">
<rect width="23.5577" height="28.0001" fill="white" transform="translate(2.4447 0.222168)"/>
</clipPath>
</defs>
</svg>
