<svg width="28" height="22" viewBox="0 0 28 22" fill="none" xmlns="http://www.w3.org/2000/svg">
<g clip-path="url(#clip0_136_400)">
<g clip-path="url(#clip1_136_400)">
<g clip-path="url(#clip2_136_400)">
<path d="M4.50668 0.526855C4.50593 0.526855 4.50508 0.526855 4.50433 0.526855C4.2395 0.526855 3.99042 0.630088 3.80234 0.817698C3.61219 1.00738 3.50745 1.25995 3.50745 1.52883V16.5532C3.50745 17.1041 3.95743 17.5535 4.51064 17.5549C6.84285 17.5604 10.7502 18.0465 13.4458 20.8674V5.14395C13.4458 4.95719 13.3981 4.78174 13.308 4.63655C11.0957 1.07366 6.84417 0.532324 4.50668 0.526855Z" fill="#FB39AD"/>
<path d="M24.9386 16.5533V1.52883C24.9386 1.25995 24.8339 1.00738 24.6437 0.817698C24.4556 0.630088 24.2064 0.526855 23.9418 0.526855C23.941 0.526855 23.9401 0.526855 23.9394 0.526855C21.602 0.532418 17.3505 1.07375 15.138 4.63665C15.048 4.78183 15.0004 4.95728 15.0004 5.14404V20.8674C17.6959 18.0465 21.6033 17.5604 23.9355 17.5549C24.4886 17.5535 24.9386 17.1041 24.9386 16.5533Z" fill="#FB39AD"/>
<path d="M27.2213 3.99121H26.4948V16.5527C26.4948 17.9594 25.3487 19.1065 23.9398 19.1099C21.9616 19.1147 18.6998 19.5015 16.3898 21.6878C20.385 20.7096 24.5967 21.3455 26.997 21.8925C27.2967 21.9608 27.6064 21.8902 27.8465 21.6989C28.0858 21.508 28.2231 21.2226 28.2231 20.9163V4.99299C28.2232 4.44063 27.7736 3.99121 27.2213 3.99121Z" fill="#FB39AD"/>
<path d="M1.95105 16.5527V3.99121H1.22456C0.672288 3.99121 0.222778 4.44063 0.222778 4.99299V20.916C0.222778 21.2224 0.360045 21.5077 0.599318 21.6986C0.839252 21.8899 1.14867 21.9607 1.44884 21.8922C3.84912 21.3451 8.06092 20.7093 12.056 21.6876C9.74601 19.5013 6.48424 19.1146 4.50604 19.1098C3.09727 19.1065 1.95105 17.9594 1.95105 16.5527Z" fill="#FB39AD"/>
</g>
</g>
</g>
<defs>
<clipPath id="clip0_136_400">
<rect width="28" height="21.3917" fill="white" transform="translate(0.222229 0.525391)"/>
</clipPath>
<clipPath id="clip1_136_400">
<rect width="28" height="21.3917" fill="white" transform="translate(0.222412 0.525879)"/>
</clipPath>
<clipPath id="clip2_136_400">
<rect width="28" height="21.3917" fill="white" transform="translate(0.222595 0.526367)"/>
</clipPath>
</defs>
</svg>
