<svg width="25" height="25" viewBox="0 0 25 25" fill="none" xmlns="http://www.w3.org/2000/svg">
<path d="M20.5916 21.7418L21.4083 20.9252L19.25 18.7668V15.5002H18.0833V19.2335L20.5916 21.7418ZM9.33329 5.00016H14V2.66683H9.33329V5.00016ZM18.6666 24.8335C17.0527 24.8335 15.6772 24.2646 14.5401 23.1267C13.403 21.9888 12.8341 20.6133 12.8333 19.0002C12.8325 17.3871 13.4015 16.0116 14.5401 14.8737C15.6788 13.7358 17.0543 13.1668 18.6666 13.1668C20.279 13.1668 21.6548 13.7358 22.7943 14.8737C23.9337 16.0116 24.5023 17.3871 24.5 19.0002C24.4976 20.6133 23.9287 21.9892 22.7931 23.1278C21.6576 24.2665 20.2821 24.8351 18.6666 24.8335ZM2.33329 22.5002C1.69162 22.5002 1.14251 22.2719 0.685954 21.8153C0.229399 21.3588 0.000732001 20.8093 -4.57764e-05 20.1668V7.3335C-4.57764e-05 6.69183 0.228621 6.14272 0.685954 5.68616C1.14329 5.22961 1.6924 5.00094 2.33329 5.00016H6.99995V2.66683C6.99995 2.02516 7.22862 1.47605 7.68596 1.0195C8.14329 0.562941 8.6924 0.334274 9.33329 0.333496H14C14.6416 0.333496 15.1911 0.562163 15.6485 1.0195C16.1058 1.47683 16.3341 2.02594 16.3333 2.66683V5.00016H21C21.6416 5.00016 22.1911 5.22883 22.6485 5.68616C23.1058 6.1435 23.3341 6.69261 23.3333 7.3335V12.321C22.6527 11.8349 21.9138 11.4654 21.1166 11.2127C20.3194 10.9599 19.5027 10.8335 18.6666 10.8335C16.4111 10.8335 14.4861 11.6307 12.8916 13.2252C11.2972 14.8196 10.5 16.7446 10.5 19.0002C10.5 19.6029 10.5633 20.2011 10.6901 20.7945C10.8169 21.3879 11.016 21.9565 11.2875 22.5002H2.33329Z" fill="#FB39AD"/>
</svg>
