<svg width="29" height="29" viewBox="0 0 29 29" fill="none" xmlns="http://www.w3.org/2000/svg">
<g clip-path="url(#clip0_258_837)">
<g clip-path="url(#clip1_258_837)">
<path d="M2 18.0859C2 18.3621 2.22388 18.5859 2.5 18.5859H26.5C26.7761 18.5859 27 18.3621 27 18.0859V2.58594H2V18.0859Z" fill="#DF67FF"/>
<path d="M28 0.585938H1C0.723877 0.585938 0.5 0.809814 0.5 1.08594C0.5 1.36206 0.723877 1.58594 1 1.58594H28C28.2761 1.58594 28.5 1.36206 28.5 1.08594C28.5 0.809814 28.2761 0.585938 28 0.585938Z" fill="#DF67FF"/>
<path d="M18.5 26.5859H15V20.5859H15.5C15.7761 20.5859 16 20.3621 16 20.0859V19.5859H13V20.0859C13 20.3621 13.2239 20.5859 13.5 20.5859H14V26.5859H10.5C9.67163 26.5859 9 27.2576 9 28.0859V28.5859H20V28.0859C20 27.2576 19.3284 26.5859 18.5 26.5859Z" fill="#DF67FF"/>
</g>
</g>
<defs>
<clipPath id="clip0_258_837">
<rect width="28" height="28" fill="white" transform="translate(0.5 0.585938)"/>
</clipPath>
<clipPath id="clip1_258_837">
<rect width="28" height="28" fill="white" transform="translate(0.5 0.585938)"/>
</clipPath>
</defs>
</svg>
