<svg width="44" height="44" viewBox="0 0 44 44" fill="none" xmlns="http://www.w3.org/2000/svg">
<rect width="44" height="44" rx="8" fill="white" fill-opacity="0.1"/>
<path d="M31.4125 18.372L22.4125 12.372C22.2892 12.2936 22.1461 12.252 22 12.252C21.8539 12.252 21.7108 12.2936 21.5875 12.372L12.5875 18.372C12.483 18.4398 12.3972 18.533 12.3382 18.6428C12.2792 18.7526 12.2489 18.8755 12.25 19.0001V28.7501C12.25 29.1479 12.4081 29.5295 12.6894 29.8108C12.9707 30.0921 13.3522 30.2501 13.75 30.2501H30.25C30.6479 30.2501 31.0294 30.0921 31.3107 29.8108C31.592 29.5295 31.75 29.1479 31.75 28.7501V19.0001C31.7512 18.8755 31.7208 18.7526 31.6618 18.6428C31.6029 18.533 31.5171 18.4398 31.4125 18.372ZM19.0657 24.2501L13.75 28.0001V20.4532L19.0657 24.2501ZM20.6032 25.0001H23.3969L28.7032 28.7501H15.2969L20.6032 25.0001ZM24.9344 24.2501L30.25 20.4532V28.0001L24.9344 24.2501Z" fill="white"/>
</svg>
