<svg width="29" height="29" viewBox="0 0 29 29" fill="none" xmlns="http://www.w3.org/2000/svg">
<g clip-path="url(#clip0_258_775)">
<g clip-path="url(#clip1_258_775)">
<g clip-path="url(#clip2_258_775)">
<g clip-path="url(#clip3_258_775)">
<path d="M28.667 20.0283C28.667 18.9603 27.9791 18.0582 27.0264 17.7185V9.22036L28.667 8.54393L14.667 2.92676L0.666992 8.54393L14.667 14.1612L25.3857 9.87913V17.7185C24.433 18.0582 23.7451 18.9603 23.7451 20.0283C23.7451 21.0061 24.3226 21.8455 25.1506 22.2421L23.7876 26.3313L25.3433 26.8504L26.2061 24.262L27.0688 26.8504L28.6245 26.3313L27.2615 22.2421C28.0895 21.8455 28.667 21.0062 28.667 20.0283Z" fill="#DF67FF"/>
</g>
</g>
<g clip-path="url(#clip4_258_775)">
<g clip-path="url(#clip5_258_775)">
<path d="M14.667 15.9293L7.28418 12.9648V15.1066C7.28418 17.445 10.4581 19.2082 14.667 19.2082C18.8759 19.2082 22.0498 17.445 22.0498 15.1066V12.9648L14.667 15.9293Z" fill="#DF67FF"/>
</g>
</g>
</g>
</g>
<defs>
<clipPath id="clip0_258_775">
<rect width="28" height="28" fill="white" transform="translate(0.666992 0.888672)"/>
</clipPath>
<clipPath id="clip1_258_775">
<rect width="28" height="28" fill="white" transform="translate(0.666992 0.888672)"/>
</clipPath>
<clipPath id="clip2_258_775">
<rect width="28" height="23.9236" fill="white" transform="translate(0.666992 2.92676)"/>
</clipPath>
<clipPath id="clip3_258_775">
<rect width="28" height="23.9236" fill="white" transform="translate(0.666992 2.92676)"/>
</clipPath>
<clipPath id="clip4_258_775">
<rect width="14.7656" height="6.24334" fill="white" transform="translate(7.28418 12.9648)"/>
</clipPath>
<clipPath id="clip5_258_775">
<rect width="14.7656" height="6.24334" fill="white" transform="translate(7.28418 12.9648)"/>
</clipPath>
</defs>
</svg>
