<svg width="29" height="28" viewBox="0 0 29 28" fill="none" xmlns="http://www.w3.org/2000/svg">
<path d="M8.24995 24.5H4.16662C3.52495 24.5 2.99995 23.975 2.99995 23.3333V11.6667C2.99995 11.025 3.52495 10.5 4.16662 10.5H8.24995C8.89162 10.5 9.41662 11.025 9.41662 11.6667V23.3333C9.41662 23.975 8.89162 24.5 8.24995 24.5ZM16.7083 3.5H12.625C11.9833 3.5 11.4583 4.025 11.4583 4.66667V23.3333C11.4583 23.975 11.9833 24.5 12.625 24.5H16.7083C17.35 24.5 17.875 23.975 17.875 23.3333V4.66667C17.875 4.025 17.35 3.5 16.7083 3.5ZM25.1666 12.8333H21.0833C20.4416 12.8333 19.9166 13.3583 19.9166 14V23.3333C19.9166 23.975 20.4416 24.5 21.0833 24.5H25.1666C25.8083 24.5 26.3333 23.975 26.3333 23.3333V14C26.3333 13.3583 25.8083 12.8333 25.1666 12.8333Z" fill="#FB39AD"/>
</svg>
