<svg width="44" height="44" viewBox="0 0 44 44" fill="none" xmlns="http://www.w3.org/2000/svg">
<rect width="44" height="44" rx="8" fill="white" fill-opacity="0.1"/>
<path d="M22 11.5C19.8127 11.5025 17.7157 12.3725 16.1691 13.9191C14.6225 15.4657 13.7525 17.5627 13.75 19.75C13.75 26.8094 21.25 32.1437 21.5688 32.3687C21.6965 32.4538 21.8465 32.4992 22 32.4992C22.1535 32.4992 22.3035 32.4538 22.4313 32.3687C22.75 32.1437 30.25 26.8094 30.25 19.75C30.2475 17.5627 29.3775 15.4657 27.8309 13.9191C26.2843 12.3725 24.1873 11.5025 22 11.5ZM22 16.75C22.5933 16.75 23.1734 16.9259 23.6667 17.2556C24.1601 17.5852 24.5446 18.0538 24.7716 18.6019C24.9987 19.1501 25.0581 19.7533 24.9424 20.3353C24.8266 20.9172 24.5409 21.4518 24.1213 21.8713C23.7018 22.2909 23.1672 22.5766 22.5853 22.6924C22.0033 22.8081 21.4001 22.7487 20.8519 22.5216C20.3038 22.2946 19.8352 21.9101 19.5056 21.4167C19.1759 20.9234 19 20.3433 19 19.75C19 18.9543 19.3161 18.1913 19.8787 17.6287C20.4413 17.0661 21.2044 16.75 22 16.75Z" fill="white"/>
</svg>
