<svg width="44" height="44" viewBox="0 0 44 44" fill="none" xmlns="http://www.w3.org/2000/svg">
<rect width="44" height="44" rx="8" fill="white" fill-opacity="0.1"/>
<path d="M30.8125 24.8501L26.4156 22.9751C26.1888 22.8734 25.9397 22.8313 25.692 22.8526C25.4443 22.8739 25.2061 22.958 25 23.097L22.6469 24.6626C21.2127 23.9661 20.0516 22.8115 19.3469 21.3814L20.9031 19.0001C21.0412 18.7938 21.1255 18.5562 21.1484 18.309C21.1713 18.0618 21.1321 17.8127 21.0344 17.5845L19.15 13.1876C19.0185 12.8907 18.7959 12.6434 18.5144 12.4816C18.2328 12.3198 17.9071 12.2518 17.5844 12.2876C16.3184 12.4535 15.1557 13.0734 14.3124 14.0322C13.4692 14.991 13.0028 16.2233 13 17.5001C13 24.9439 19.0562 31.0001 26.5 31.0001C27.7768 30.9973 29.0092 30.5309 29.9679 29.6877C30.9267 28.8445 31.5467 27.6818 31.7125 26.4158C31.7483 26.093 31.6803 25.7673 31.5185 25.4858C31.3567 25.2043 31.1094 24.9816 30.8125 24.8501Z" fill="white"/>
</svg>
