<svg width="28" height="29" viewBox="0 0 28 29" fill="none" xmlns="http://www.w3.org/2000/svg">
<g clip-path="url(#clip0_258_813)">
<path d="M23.625 4.96094H4.375C3.91087 4.96094 3.46575 5.14531 3.13756 5.4735C2.80937 5.80169 2.625 6.24681 2.625 6.71094V22.4609C2.625 22.9251 2.80937 23.3702 3.13756 23.6984C3.46575 24.0266 3.91087 24.2109 4.375 24.2109H5.83953C6.00513 24.211 6.16735 24.1641 6.30733 24.0756C6.44731 23.9871 6.55931 23.8607 6.63031 23.7111C7.0558 22.8128 7.72757 22.0537 8.5675 21.5221C9.40743 20.9906 10.381 20.7084 11.375 20.7084C12.369 20.7084 13.3426 20.9906 14.1825 21.5221C15.0224 22.0537 15.6942 22.8128 16.1197 23.7111C16.1907 23.8607 16.3027 23.9871 16.4427 24.0756C16.5827 24.1641 16.7449 24.211 16.9105 24.2109H23.625C24.0891 24.2109 24.5342 24.0266 24.8624 23.6984C25.1906 23.3702 25.375 22.9251 25.375 22.4609V6.71094C25.375 6.24681 25.1906 5.80169 24.8624 5.4735C24.5342 5.14531 24.0891 4.96094 23.625 4.96094ZM11.375 18.9609C10.6828 18.9609 10.0061 18.7557 9.4305 18.3711C8.85493 17.9865 8.40633 17.4399 8.14142 16.8003C7.87651 16.1608 7.8072 15.4571 7.94225 14.7781C8.0773 14.0992 8.41064 13.4755 8.90013 12.9861C9.38961 12.4966 10.0133 12.1632 10.6922 12.0282C11.3711 11.8931 12.0749 11.9625 12.7144 12.2274C13.3539 12.4923 13.9006 12.9409 14.2851 13.5164C14.6697 14.092 14.875 14.7687 14.875 15.4609C14.875 16.3892 14.5063 17.2794 13.8499 17.9358C13.1935 18.5922 12.3033 18.9609 11.375 18.9609ZM23.625 22.4609H17.4377C17.0561 21.8033 16.5699 21.2122 15.9983 20.7109H21C21.2321 20.7109 21.4546 20.6188 21.6187 20.4547C21.7828 20.2906 21.875 20.068 21.875 19.8359V9.33594C21.875 9.10387 21.7828 8.88131 21.6187 8.71722C21.4546 8.55312 21.2321 8.46094 21 8.46094H7C6.76794 8.46094 6.54538 8.55312 6.38128 8.71722C6.21719 8.88131 6.125 9.10387 6.125 9.33594V19.8359C6.1249 20.03 6.18932 20.2186 6.30812 20.372C6.42691 20.5255 6.59335 20.6351 6.78125 20.6836C6.1963 21.1903 5.69987 21.791 5.31234 22.4609H4.375V6.71094H23.625V22.4609Z" fill="#FB39AD"/>
</g>
<defs>
<clipPath id="clip0_258_813">
<rect width="28" height="28" fill="white" transform="translate(0 0.363281)"/>
</clipPath>
</defs>
</svg>
