<svg width="29" height="29" viewBox="0 0 29 29" fill="none" xmlns="http://www.w3.org/2000/svg">
<g clip-path="url(#clip0_258_789)">
<g clip-path="url(#clip1_258_789)">
<g clip-path="url(#clip2_258_789)">
<path d="M10.7554 19.3794H19.0235V23.5135H10.7554V19.3794Z" fill="#DF67FF"/>
<path d="M14.8894 3.67041C9.87444 3.67041 5.79443 7.75047 5.79443 12.7654V25.1676C5.79443 26.9912 7.27807 28.4749 9.1017 28.4749H20.6771C22.5007 28.4749 23.9844 26.9912 23.9844 25.1676V12.7654C23.9844 7.75041 19.9044 3.67041 14.8894 3.67041ZM9.92851 11.1117H19.8503V12.7654H18.1967V14.419H16.543V12.7654H9.92851V11.1117ZM20.6771 25.1676H9.1017V17.7263H20.6771V25.1676Z" fill="#DF67FF"/>
<path d="M23.3811 2.08354L18.6883 0.474609L18.002 2.47661C19.6603 2.97925 21.1501 3.87255 22.3643 5.0491L23.3811 2.08354Z" fill="#DF67FF"/>
<path d="M11.7771 2.47661L11.0907 0.474609L6.39795 2.08354L7.41471 5.0491C8.62892 3.8726 10.1188 2.97925 11.7771 2.47661Z" fill="#DF67FF"/>
</g>
</g>
</g>
<defs>
<clipPath id="clip0_258_789">
<rect width="28" height="28" fill="white" transform="translate(0.88916 0.474609)"/>
</clipPath>
<clipPath id="clip1_258_789">
<rect width="28" height="28" fill="white" transform="translate(0.88916 0.474609)"/>
</clipPath>
<clipPath id="clip2_258_789">
<rect width="18.1899" height="28" fill="white" transform="translate(5.79443 0.474609)"/>
</clipPath>
</defs>
</svg>
