<svg width="29" height="28" viewBox="0 0 29 28" fill="none" xmlns="http://www.w3.org/2000/svg">
<g clip-path="url(#clip0_136_412)">
<path d="M6.13634 22.6043C6.94857 22.6043 7.72753 22.2817 8.30186 21.7073C8.87619 21.133 9.19884 20.3541 9.19884 19.5418C9.19884 18.7296 8.87619 17.9506 8.30186 17.3763C7.72753 16.802 6.94857 16.4793 6.13634 16.4793C5.32412 16.4793 4.54516 16.802 3.97083 17.3763C3.3965 17.9506 3.07384 18.7296 3.07384 19.5418C3.07384 20.3541 3.3965 21.133 3.97083 21.7073C4.54516 22.2817 5.32412 22.6043 6.13634 22.6043ZM11.0667 26.9793C10.7105 25.956 10.0447 25.0688 9.16151 24.4411C8.27834 23.8133 7.22165 23.476 6.13809 23.476C5.05454 23.476 3.99785 23.8133 3.11467 24.4411C2.2315 25.0688 1.56564 25.956 1.20951 26.9793M22.5303 22.6043C23.3426 22.6043 24.1215 22.2817 24.6959 21.7073C25.2702 21.133 25.5928 20.3541 25.5928 19.5418C25.5928 18.7296 25.2702 17.9506 24.6959 17.3763C24.1215 16.802 23.3426 16.4793 22.5303 16.4793C21.7181 16.4793 20.9392 16.802 20.3648 17.3763C19.7905 17.9506 19.4678 18.7296 19.4678 19.5418C19.4678 20.3541 19.7905 21.133 20.3648 21.7073C20.9392 22.2817 21.7181 22.6043 22.5303 22.6043ZM27.4583 26.9793C27.1022 25.956 26.4364 25.0688 25.5532 24.4411C24.67 23.8133 23.6133 23.476 22.5298 23.476C21.4462 23.476 20.3895 23.8133 19.5063 24.4411C18.6232 25.0688 17.9573 25.956 17.6012 26.9793M1.20834 8.021H5.29168H1.20834ZM3.54168 10.3543L1.20834 8.021L3.54168 5.68766M27.4583 8.021H23.375H27.4583ZM25.125 10.3543L27.4583 8.021L25.125 5.68766M14.3333 12.6877C15.8804 12.6877 17.3642 12.0731 18.4581 10.9791C19.5521 9.88516 20.1667 8.40143 20.1667 6.85433C20.1667 5.30723 19.5521 3.8235 18.4581 2.72954C17.3642 1.63558 15.8804 1.021 14.3333 1.021C12.7862 1.021 11.3025 1.63558 10.2086 2.72954C9.11459 3.8235 8.50001 5.30723 8.50001 6.85433C8.50001 8.40143 9.11459 9.88516 10.2086 10.9791C11.3025 12.0731 12.7862 12.6877 14.3333 12.6877Z" fill="#7B02A1"/>
<path d="M11.0667 26.9793C10.7105 25.956 10.0447 25.0688 9.16151 24.4411C8.27834 23.8133 7.22165 23.476 6.13809 23.476C5.05454 23.476 3.99785 23.8133 3.11467 24.4411C2.2315 25.0688 1.56564 25.956 1.20951 26.9793M27.4583 26.9793C27.1022 25.956 26.4364 25.0688 25.5532 24.4411C24.67 23.8133 23.6133 23.476 22.5298 23.476C21.4462 23.476 20.3895 23.8133 19.5063 24.4411C18.6232 25.0688 17.9573 25.956 17.6012 26.9793M1.20834 8.021H5.29168M1.20834 8.021L3.54168 10.3543M1.20834 8.021L3.54168 5.68766M27.4583 8.021H23.375M27.4583 8.021L25.125 10.3543M27.4583 8.021L25.125 5.68766M6.13634 22.6043C6.94857 22.6043 7.72753 22.2817 8.30186 21.7073C8.87619 21.133 9.19884 20.3541 9.19884 19.5418C9.19884 18.7296 8.87619 17.9506 8.30186 17.3763C7.72753 16.802 6.94857 16.4793 6.13634 16.4793C5.32412 16.4793 4.54516 16.802 3.97083 17.3763C3.3965 17.9506 3.07384 18.7296 3.07384 19.5418C3.07384 20.3541 3.3965 21.133 3.97083 21.7073C4.54516 22.2817 5.32412 22.6043 6.13634 22.6043ZM22.5303 22.6043C23.3426 22.6043 24.1215 22.2817 24.6959 21.7073C25.2702 21.133 25.5928 20.3541 25.5928 19.5418C25.5928 18.7296 25.2702 17.9506 24.6959 17.3763C24.1215 16.802 23.3426 16.4793 22.5303 16.4793C21.7181 16.4793 20.9392 16.802 20.3648 17.3763C19.7905 17.9506 19.4678 18.7296 19.4678 19.5418C19.4678 20.3541 19.7905 21.133 20.3648 21.7073C20.9392 22.2817 21.7181 22.6043 22.5303 22.6043ZM14.3333 12.6877C15.8804 12.6877 17.3642 12.0731 18.4581 10.9791C19.5521 9.88516 20.1667 8.40143 20.1667 6.85433C20.1667 5.30723 19.5521 3.8235 18.4581 2.72954C17.3642 1.63558 15.8804 1.021 14.3333 1.021C12.7862 1.021 11.3025 1.63558 10.2086 2.72954C9.11459 3.8235 8.50001 5.30723 8.50001 6.85433C8.50001 8.40143 9.11459 9.88516 10.2086 10.9791C11.3025 12.0731 12.7862 12.6877 14.3333 12.6877Z" stroke="#7B02A1" stroke-width="2" stroke-linecap="round" stroke-linejoin="round"/>
<path d="M12 7.43783L13.2635 8.70133C13.3234 8.76114 13.3956 8.8072 13.4751 8.8363C13.5546 8.86541 13.6395 8.87686 13.7239 8.86987C13.8082 8.86287 13.8901 8.8376 13.9637 8.79581C14.0373 8.75401 14.1009 8.69669 14.1502 8.62783L16.6667 5.10449" stroke="#7B02A1" stroke-width="2" stroke-linecap="round" stroke-linejoin="round"/>
</g>
<defs>
<clipPath id="clip0_136_412">
<rect width="28" height="28" fill="white" transform="translate(0.333344)"/>
</clipPath>
</defs>
</svg>
