<svg width="29" height="28" viewBox="0 0 29 28" fill="none" xmlns="http://www.w3.org/2000/svg">
<path d="M21.3333 8.74984C22.1069 8.74984 22.8488 8.44255 23.3957 7.89557C23.9427 7.34858 24.25 6.60672 24.25 5.83317C24.25 5.05962 23.9427 4.31776 23.3957 3.77078C22.8488 3.22379 22.1069 2.9165 21.3333 2.9165C20.5598 2.9165 19.8179 3.22379 19.2709 3.77078C18.724 4.31776 18.4167 5.05962 18.4167 5.83317C18.4167 6.60672 18.724 7.34858 19.2709 7.89557C19.8179 8.44255 20.5598 8.74984 21.3333 8.74984Z" fill="#7B02A1" stroke="#7B02A1" stroke-width="2.33333"/>
<path d="M7.33334 9.78253L12.0018 8.16553L18.4167 11.2274L12.0018 16.009L18.4167 20.2324L14.338 25.6655M20.9367 12.6251L22.5012 13.4762L26 10.1885M10.1619 18.4013L8.42942 20.6833L2.66901 23.9149" stroke="#7B02A1" stroke-width="2.33333" stroke-linecap="round" stroke-linejoin="round"/>
</svg>
