<svg width="29" height="29" viewBox="0 0 29 29" fill="none" xmlns="http://www.w3.org/2000/svg">
<g clip-path="url(#clip0_258_824)">
<g clip-path="url(#clip1_258_824)">
<path d="M12.3956 11.5188C12.4285 11.4928 12.4629 11.4695 12.497 11.445C12.5837 11.3826 12.6742 11.3262 12.7683 11.276C12.8053 11.2558 12.8411 11.2356 12.8791 11.2179C13.7578 10.7911 14.807 10.9349 15.5386 11.5822C15.5772 11.6158 15.6087 11.654 15.6452 11.6895C15.7187 11.7604 15.7879 11.8355 15.8522 11.9148C15.8887 11.9604 15.9192 12.0097 15.9507 12.0579C16.003 12.1338 16.0513 12.2126 16.0948 12.294C16.1229 12.3471 16.1474 12.4011 16.1714 12.4564C16.2074 12.5387 16.2386 12.6233 16.2653 12.709C16.2831 12.7666 16.2999 12.8233 16.3145 12.8817C16.3347 12.9713 16.3498 13.0616 16.3599 13.1528C16.3666 13.2097 16.375 13.2659 16.3779 13.3233C16.3815 13.4235 16.3789 13.5236 16.3702 13.6235C16.3666 13.6725 16.3671 13.7217 16.3609 13.771C16.3409 13.9146 16.3078 14.0563 16.2624 14.1939C16.2624 14.2013 16.26 14.2083 16.2576 14.2155L17.5782 14.978L20.0375 10.7147L6.40991 2.84521L3.95068 7.10803L12.0868 11.8046C12.1812 11.7006 12.2847 11.605 12.3956 11.5188Z" fill="#FB39AD"/>
<path d="M1.51025 7.40067L5.44501 0.585938L6.29637 1.07754L2.36162 7.89228L1.51025 7.40067Z" fill="#FB39AD"/>
<path d="M23.6772 16.2239L24.1693 15.3716L27.5767 17.339L27.0846 18.1913L23.6772 16.2239Z" fill="#FB39AD"/>
<path d="M18.9263 14.6156L20.4018 12.0605L23.8092 14.0282L22.3336 16.5832L18.9263 14.6156Z" fill="#FB39AD"/>
<path d="M15.0861 14.5551C15.0636 14.5136 15.035 14.4756 15.0011 14.4425C15.0787 14.362 15.1467 14.2727 15.2033 14.1764C15.6094 13.4703 15.3695 12.569 14.6661 12.1583C14.565 12.1017 14.4574 12.0572 14.346 12.0255C14.3131 12.0157 14.2792 12.0097 14.2477 12.0022C14.1668 11.9847 14.0844 11.9739 14.0018 11.9698C13.9663 11.9698 13.9314 11.9655 13.8959 11.9664C13.7785 11.9691 13.6618 11.9857 13.5482 12.0157C13.0469 12.1475 12.6524 12.5344 12.5109 13.0332C12.3695 13.532 12.502 14.0683 12.8596 14.4439C12.826 14.4766 12.7977 14.514 12.7751 14.5551L6.11045 27.8741C5.98917 28.1173 6.08788 28.4127 6.33092 28.5343C6.57396 28.6555 6.86959 28.5571 6.99087 28.3138L13.4365 15.4178V28.0941C13.4365 28.3657 13.6567 28.5859 13.9283 28.5859C14.1999 28.5859 14.4202 28.3657 14.4202 28.0941V15.4216L20.8634 28.3138C20.9849 28.5571 21.2803 28.6555 21.5236 28.5343C21.7666 28.4127 21.8653 28.1173 21.7438 27.8741L15.0861 14.5551Z" fill="#FB39AD"/>
</g>
</g>
<defs>
<clipPath id="clip0_258_824">
<rect width="28" height="28" fill="white" transform="translate(0.5 0.585938)"/>
</clipPath>
<clipPath id="clip1_258_824">
<rect width="28" height="28" fill="white" transform="translate(0.5 0.585938)"/>
</clipPath>
</defs>
</svg>
